<svg width="45" height="45" viewBox="0 0 45 45" fill="none" xmlns="http://www.w3.org/2000/svg">
<path d="M23.6272 43.6409L0.695997 23.9221C0.254156 23.5422 0 22.9884 0 22.4057V8.65442C0 6.93472 2.02668 6.01687 3.31923 7.15121L30.6497 31.1365C31.0145 31.4567 31.4834 31.6332 31.9689 31.6332H43C44.1046 31.6332 45 32.5287 45 33.6332V42.1245C45 43.2291 44.1046 44.1245 43 44.1245H24.9312C24.4527 44.1245 23.99 43.9529 23.6272 43.6409Z" fill="white"/>
<path d="M4.07628 42.1245V34.536C4.07628 32.827 6.08112 31.9053 7.37834 33.0179L16.2259 40.6064C17.6351 41.815 16.7804 44.1245 14.9239 44.1245H6.07628C4.97171 44.1245 4.07628 43.2291 4.07628 42.1245Z" fill="white"/>
<path d="M43 28.7919H33.2157C32.1112 28.7919 31.2157 27.8965 31.2157 26.7919V13.4057C27.0003 12.7302 23.4493 13.9347 21.2959 15.393C20.0313 16.2494 17.6725 16.6739 16.5187 15.6732L9.10483 9.2436C8.52295 8.73896 8.25923 7.93088 8.60354 7.2419C11.7436 0.958493 24.8027 -0.0644563 31.2157 0.00301783H43C44.1046 0.00301783 45 0.898447 45 2.00302V26.7919C45 27.8965 44.1046 28.7919 43 28.7919Z" fill="white"/>
</svg>
